<?xml version="1.0" standalone="no"?>
<!DOCTYPE svg PUBLIC "-//W3C//DTD SVG 20010904//EN"
 "http://www.w3.org/TR/2001/REC-SVG-20010904/DTD/svg10.dtd">
<svg version="1.0" xmlns="http://www.w3.org/2000/svg"
 width="305.000000pt" height="305.000000pt" viewBox="0 0 305.000000 305.000000"
 preserveAspectRatio="xMidYMid meet">
<metadata>
Created by potrace 1.11, written by Peter Selinger 2001-2013
</metadata>
<g transform="translate(0.000000,305.000000) scale(0.100000,-0.100000)"
fill="#000000" stroke="none">
<path d="M1340 2884 c-176 -24 -369 -90 -511 -174 -308 -183 -547 -490 -634
-816 -16 -58 -19 -70 -30 -129 -30 -162 -25 -429 11 -547 3 -9 7 -26 9 -39 2
-12 16 -57 30 -100 130 -403 467 -737 879 -873 43 -15 93 -29 109 -32 17 -2
33 -6 36 -8 3 -2 31 -7 61 -11 30 -3 69 -8 85 -11 38 -6 242 -6 275 0 14 3 48
7 75 11 81 10 233 53 325 92 342 147 620 434 750 775 24 64 57 180 65 228 3
19 10 60 15 90 10 58 7 344 -4 395 -28 126 -50 207 -80 284 -118 306 -345 560
-638 716 -75 40 -221 100 -268 110 -8 2 -44 10 -80 19 -140 32 -333 40 -480
20z"/>
</g>
</svg>
